<svg width="25" height="25" viewBox="0 0 25 25" fill="none" xmlns="http://www.w3.org/2000/svg">
<g clip-path="url(#clip0_437_5)">
<path d="M0 12.5C0 9.18479 1.31696 6.00537 3.66117 3.66117C6.00537 1.31696 9.18479 0 12.5 0C15.8152 0 18.9946 1.31696 21.3388 3.66117C23.683 6.00537 25 9.18479 25 12.5C25 15.8152 23.683 18.9946 21.3388 21.3388C18.9946 23.683 15.8152 25 12.5 25C9.18479 25 6.00537 23.683 3.66117 21.3388C1.31696 18.9946 0 15.8152 0 12.5ZM11.7188 1.68281C10.6719 2.00156 9.63281 2.96406 8.77031 4.58125C8.48614 5.1189 8.24174 5.67664 8.03906 6.25H11.7188V1.68281ZM6.39062 6.25C6.65105 5.42003 6.98574 4.61521 7.39062 3.84531C7.66079 3.33446 7.9728 2.84686 8.32344 2.3875C6.38751 3.19035 4.72188 4.53066 3.52344 6.25H6.39062ZM5.48125 11.7188C5.52812 10.3484 5.69688 9.03438 5.96875 7.8125H2.61563C2.033 9.03914 1.68533 10.3641 1.59063 11.7188H5.48125ZM7.57344 7.8125C7.26612 9.09344 7.08917 10.4022 7.04531 11.7188H11.7188V7.8125H7.57344ZM13.2812 7.8125V11.7188H17.9531C17.9098 10.4022 17.7334 9.09349 17.4266 7.8125H13.2812ZM7.04688 13.2812C7.09022 14.5978 7.26664 15.9065 7.57344 17.1875H11.7188V13.2812H7.04688ZM13.2812 13.2812V17.1875H17.4266C17.7188 15.9922 17.9047 14.675 17.9547 13.2812H13.2812ZM8.03906 18.75C8.25469 19.3531 8.5 19.9125 8.77031 20.4187C9.63281 22.0359 10.6734 22.9969 11.7188 23.3172V18.75H8.03906ZM8.32344 22.6125C7.97277 22.1532 7.66077 21.6656 7.39062 21.1547C6.98574 20.3848 6.65106 19.58 6.39062 18.75H3.52344C4.72182 20.4694 6.38746 21.8097 8.32344 22.6125ZM5.96875 17.1875C5.68619 15.9032 5.523 14.5956 5.48125 13.2812H1.59063C1.6875 14.6719 2.04531 15.9891 2.61563 17.1875H5.96875ZM16.6766 22.6125C18.6125 21.8097 20.2782 20.4694 21.4766 18.75H18.6094C18.3489 19.58 18.0142 20.3848 17.6094 21.1547C17.3393 21.6656 17.0273 22.1532 16.6766 22.6125ZM13.2812 18.75V23.3172C14.3281 22.9984 15.3672 22.0359 16.2297 20.4187C16.5 19.9125 16.7453 19.3531 16.9609 18.75H13.2812ZM19.0312 17.1875H22.3844C22.9547 15.9891 23.3125 14.6719 23.4094 13.2812H19.5187C19.477 14.5956 19.3138 15.9032 19.0312 17.1875ZM23.4094 11.7188C23.3146 10.3641 22.967 9.03915 22.3844 7.8125H19.0312C19.3031 9.03438 19.4719 10.3484 19.5187 11.7188H23.4094ZM17.6094 3.84531C17.9953 4.57031 18.3312 5.37656 18.6094 6.25H21.4766C20.2782 4.5306 18.6125 3.19028 16.6766 2.3875C17.0172 2.83125 17.3297 3.32187 17.6094 3.84531ZM16.9609 6.25C16.7583 5.67663 16.5139 5.11889 16.2297 4.58125C15.3672 2.96406 14.3281 2.00312 13.2812 1.68281V6.25H16.9609Z" fill="#597DFD"/>
</g>
<defs>
<clipPath id="clip0_437_5">
<rect width="25" height="25" fill="white"/>
</clipPath>
</defs>
</svg>
