<svg width="48" height="48" viewBox="0 0 48 48" fill="none" xmlns="http://www.w3.org/2000/svg">
<path d="M31.0621 32.9693C29.1077 34.9236 24.1028 33.0873 19.8833 28.8677C15.6637 24.6482 13.8274 19.6433 15.7817 17.6889L17.0685 16.4022C17.9568 15.5138 19.4205 15.5373 20.3378 16.4546L22.3309 18.4477C23.2482 19.365 23.2717 20.8287 22.3834 21.7171L22.107 21.9934C21.6274 22.4731 21.5804 23.2468 22.0261 23.7868C22.456 24.3078 22.9194 24.8266 23.4219 25.3291C23.9244 25.8316 24.4432 26.295 24.9641 26.7249C25.5042 27.1705 26.2779 27.1236 26.7575 26.644L27.0339 26.3676C27.9222 25.4793 29.386 25.5028 30.3033 26.4201L32.2964 28.4131C33.2137 29.3304 33.2371 30.7942 32.3488 31.6825L31.0621 32.9693Z" stroke="#2B3347" stroke-width="1.5"/>
<path d="M29.6264 21.7508C29.3825 21.1556 29.0188 20.598 28.5356 20.1148C28.0796 19.6588 27.5574 19.3093 26.9999 19.0663" stroke="#2B3347" stroke-width="1.5" stroke-linecap="round"/>
<path d="M27 15.6634C28.3347 16.1469 29.5869 16.9237 30.6569 17.9936C31.7537 19.0905 32.5424 20.3788 33.023 21.7511" stroke="#2B3347" stroke-width="1.5" stroke-linecap="round"/>
<rect x="0.5" y="0.5" width="47" height="47" rx="23.5" stroke="#EDF0F7"/>
</svg>
